# xmcd
#
# Track frame offsets:
# 150
# 17117
# 35692
# 51080
# 67030
# 81705
# 100467
# 118195
# 130475
# 144022
# 164290
# 183905
# 202067
#
# Disc length: 2884 seconds
#
#
# Revision: 3
# Processed by: cddbd v1.5.1PL2 Copyright (c) Steve Scherf et al.
# Submitted via: FreeRIP 2.945 
#
DISCID=c30b420d
DTITLE=Gera Samba - O Tchan
DYEAR=1900
DGENRE=
TTITLE0=Beco Do Siri
TTITLE1=O Bicho Solto
TTITLE2=Paquerei
TTITLE3=Da Clara E Da Gema
TTITLE4=Machucado Da Morena
TTITLE5=Raz o Do Meu Viver
TTITLE6=O Tchan (Pot-Pourri)
TTITLE7=T  Com Raiva De Mim
TTITLE8=Cad  Se Me D o
TTITLE9=Ent o M e
TTITLE10=Caia Pr  Dentro
TTITLE11=Gerer
TTITLE12=O Trenzinho
EXTD=
EXTT0=
EXTT1=Qui Qui C  C  C
EXTT2=
EXTT3=
EXTT4=
EXTT5=
EXTT6=Pau Que Nasce Torto\nMel  Do Tchan
EXTT7=
EXTT8=
EXTT9=
EXTT10=(Chove Chuva)
EXTT11=Cesta De Ovos\nT  Melado
EXTT12=(B nus Track)
PLAYORDER=
